<?xml version="1.0" standalone="no"?>
<!DOCTYPE svg PUBLIC "-//W3C//DTD SVG 20010904//EN"
 "http://www.w3.org/TR/2001/REC-SVG-20010904/DTD/svg10.dtd">
<svg version="1.0" xmlns="http://www.w3.org/2000/svg"
 width="512.000000pt" height="512.000000pt" viewBox="0 0 512.000000 512.000000"
 preserveAspectRatio="xMidYMid meet">

<g transform="translate(0.000000,512.000000) scale(0.100000,-0.100000)"
fill="#9a9999" stroke="none">
<path d="M3541 5104 c-42 -18 -373 -342 -412 -403 -33 -51 -39 -123 -15 -169
18 -33 1392 -1405 1423 -1421 31 -16 109 -14 141 3 41 22 420 407 432 439 14
40 13 81 -5 125 -22 51 -1363 1396 -1420 1423 -48 22 -98 24 -144 3z"/>
<path d="M2955 4121 c-56 -26 -829 -802 -850 -853 -40 -98 -25 -123 262 -409
l246 -247 51 33 c117 75 244 113 401 122 218 12 439 -63 592 -201 l50 -45 205
207 c168 169 208 214 217 247 13 49 13 51 0 100 -9 34 -83 113 -502 534 -331
332 -505 499 -532 512 -51 24 -89 24 -140 0z"/>
<path d="M1945 2720 c-26 -13 -222 -202 -546 -527 -478 -479 -507 -511 -518
-556 -23 -97 -21 -100 302 -425 161 -161 306 -301 322 -312 43 -26 87 -33 134
-20 50 13 114 73 448 417 l252 260 -24 59 c-92 229 -67 522 61 738 l35 60
-148 149 c-81 82 -162 155 -180 163 -45 19 -91 17 -138 -6z"/>
<path d="M3040 2479 c-223 -23 -417 -190 -475 -410 -20 -73 -19 -222 1 -290
29 -97 74 -171 148 -245 221 -221 561 -220 781 1 109 108 165 241 165 390 0
147 -50 271 -151 379 -127 136 -282 194 -469 175z m175 -303 c175 -81 218
-291 89 -435 -105 -116 -283 -120 -394 -9 -96 95 -106 257 -24 365 73 95 219
131 329 79z"/>
<path d="M756 1125 c-29 -10 -91 -65 -231 -205 l-190 -190 -55 56 c-30 30 -67
62 -82 70 -60 31 -139 6 -178 -58 -22 -37 -25 -73 -10 -115 14 -37 626 -651
667 -669 45 -19 82 -17 121 6 64 39 89 118 58 178 -8 15 -40 52 -70 82 l-56
55 190 190 c205 205 226 237 215 309 -6 35 -24 58 -128 164 -142 144 -168 157
-251 127z"/>
</g>
</svg>
